# xmcd CD database file
#
# Track frame offsets:
#	150
#	26924
#	50435
#	74325
#	111015
#	134025
#	154402
#	183580
#	207648
#	228388
#	254664
#	281959
#	296596
#	315847
#
# Disc length: 4446 seconds
#
# Revision: 0
# Processed by: cddbd v1.5.2PL0 Copyright (c) Steve Scherf et al.
# Submitted via: CDex 1.70beta2
#
DISCID=e4115c0e
DTITLE=Tito Puente - The Best of Tito Puente
DYEAR=1900
DGENRE=Salsa
TTITLE0=Oye como va
TTITLE1=La ultima copa
TTITLE2=Ron Kon Kan
TTITLE3=On Broadway
TTITLE4=Cielito lindo
TTITLE5=Contigo a la distancia
TTITLE6=El beso
TTITLE7=Picadillo Sam
TTITLE8=Donna life
TTITLE9=Fiesta a lo King
TTITLE10=Machito Fortuto
TTITLE11=Mambo King
TTITLE12=Paris Mambo
TTITLE13=Yambu Pa Inglaterra
EXTD=
EXTT0=
EXTT1=
EXTT2=
EXTT3=
EXTT4=
EXTT5=
EXTT6=
EXTT7=
EXTT8=
EXTT9=
EXTT10=
EXTT11=
EXTT12=
EXTT13=
PLAYORDER=
